<svg xmlns="http://www.w3.org/2000/svg" viewBox="0 0 640 640" role="img" aria-label="Abstract AI profile card">
  <defs>
    <radialGradient id="a" cx="35%" cy="22%" r="70%">
      <stop stop-color="#00E5FF" stop-opacity=".8"/>
      <stop offset=".42" stop-color="#5B8CFF" stop-opacity=".42"/>
      <stop offset="1" stop-color="#050816" stop-opacity="0"/>
    </radialGradient>
    <linearGradient id="b" x1="132" y1="92" x2="512" y2="560" gradientUnits="userSpaceOnUse">
      <stop stop-color="#fff" stop-opacity=".2"/>
      <stop offset=".55" stop-color="#5B8CFF" stop-opacity=".24"/>
      <stop offset="1" stop-color="#8B5CF6" stop-opacity=".52"/>
    </linearGradient>
    <filter id="glow" x="-30%" y="-30%" width="160%" height="160%">
      <feGaussianBlur stdDeviation="18" result="blur"/>
      <feColorMatrix in="blur" type="matrix" values="0 0 0 0 0.3 0 0 0 0 0.58 0 0 0 0 1 0 0 0 .8 0"/>
      <feMerge><feMergeNode/><feMergeNode in="SourceGraphic"/></feMerge>
    </filter>
  </defs>
  <rect width="640" height="640" rx="64" fill="#080D22"/>
  <circle cx="210" cy="150" r="230" fill="url(#a)"/>
  <circle cx="452" cy="456" r="190" fill="#8B5CF6" opacity=".2"/>
  <path d="M160 474c44-122 106-183 186-183s142 61 186 183" fill="url(#b)" opacity=".95"/>
  <circle cx="346" cy="220" r="96" fill="url(#b)" stroke="rgba(255,255,255,.34)" stroke-width="3"/>
  <g filter="url(#glow)" fill="none" stroke-linecap="round">
    <path d="M118 356c116-34 188-34 304 0" stroke="#00E5FF" stroke-opacity=".7" stroke-width="3"/>
    <path d="M184 132c94-48 186-48 276 0" stroke="#5B8CFF" stroke-opacity=".65" stroke-width="3"/>
    <path d="M122 512c134 42 272 42 414 0" stroke="#8B5CF6" stroke-opacity=".85" stroke-width="3"/>
  </g>
  <g fill="#fff" opacity=".78">
    <circle cx="124" cy="190" r="4"/><circle cx="510" cy="138" r="3"/><circle cx="548" cy="344" r="5"/><circle cx="90" cy="430" r="3"/><circle cx="436" cy="556" r="4"/>
  </g>
</svg>
