<svg xmlns="http://www.w3.org/2000/svg" viewBox="0 0 960 600" role="img" aria-label="Dashboard project preview">
  <rect width="960" height="600" rx="36" fill="#071024"/>
  <circle cx="780" cy="120" r="220" fill="#5B8CFF" opacity=".18"/>
  <circle cx="220" cy="460" r="240" fill="#00E5FF" opacity=".12"/>
  <rect x="84" y="72" width="792" height="456" rx="28" fill="rgba(255,255,255,.075)" stroke="rgba(255,255,255,.18)"/>
  <rect x="122" y="112" width="150" height="376" rx="22" fill="rgba(255,255,255,.07)"/>
  <rect x="310" y="112" width="226" height="150" rx="22" fill="rgba(91,140,255,.18)"/>
  <rect x="568" y="112" width="268" height="150" rx="22" fill="rgba(0,229,255,.12)"/>
  <rect x="310" y="296" width="526" height="192" rx="22" fill="rgba(255,255,255,.07)"/>
  <path d="M344 434c56-78 106-32 150-84s78-76 138-18 94-12 160-78" fill="none" stroke="#00E5FF" stroke-width="8" stroke-linecap="round"/>
  <g fill="#fff" opacity=".55"><rect x="148" y="148" width="92" height="14" rx="7"/><rect x="148" y="198" width="72" height="14" rx="7"/><rect x="148" y="248" width="100" height="14" rx="7"/></g>
</svg>
